<?xml version="1.0" encoding="utf-8"?>
<!-- Generator: Adobe Illustrator 16.0.0, SVG Export Plug-In . SVG Version: 6.00 Build 0)  -->
<!DOCTYPE svg PUBLIC "-//W3C//DTD SVG 1.1//EN" "http://www.w3.org/Graphics/SVG/1.1/DTD/svg11.dtd">
<svg version="1.1" id="Layer_1" xmlns:xl="http://www.w3.org/1999/xlink" xmlns:dc="http://purl.org/dc/elements/1.1/"
	 xmlns="http://www.w3.org/2000/svg" xmlns:xlink="http://www.w3.org/1999/xlink" x="0px" y="0px" width="742.5px" height="575px"
	 viewBox="0 96 742.5 575" enable-background="new 0 96 742.5 575" xml:space="preserve">
<g>
	<rect fill="#FFFFFF" width="1155" height="783"/>
	<rect x="56.693" y="152.401" fill="#B6EBF8" width="23.764" height="476.89"/>
	<rect x="56.693" y="143.756" fill="#B6EBF8" width="275" height="49"/>
	<g enable-background="new    ">
		<path d="M81.293,156.944l8.544,22.848h-5.216l-1.728-5.088h-8.544l-1.792,5.088h-5.056l8.64-22.848H81.293z M81.581,170.96
			l-2.88-8.384h-0.064l-2.976,8.384H81.581z"/>
		<path d="M99.245,166.224c-0.725,0-1.333,0.166-1.824,0.496c-0.491,0.331-0.891,0.758-1.2,1.28
			c-0.31,0.523-0.528,1.099-0.656,1.728c-0.128,0.63-0.192,1.254-0.192,1.872c0,0.598,0.064,1.206,0.192,1.824
			c0.128,0.619,0.336,1.179,0.624,1.68c0.288,0.502,0.677,0.912,1.168,1.232c0.49,0.32,1.088,0.48,1.792,0.48
			c1.088,0,1.925-0.305,2.512-0.912c0.586-0.608,0.955-1.424,1.104-2.448h4.384c-0.299,2.197-1.152,3.872-2.56,5.024
			c-1.408,1.151-3.211,1.728-5.408,1.728c-1.237,0-2.374-0.208-3.408-0.624c-1.035-0.416-1.915-0.997-2.64-1.744
			c-0.726-0.746-1.291-1.637-1.696-2.672c-0.406-1.034-0.608-2.171-0.608-3.408c0-1.279,0.187-2.469,0.56-3.567
			c0.373-1.099,0.923-2.049,1.648-2.849s1.611-1.424,2.656-1.872c1.045-0.447,2.24-0.672,3.584-0.672
			c0.981,0,1.925,0.128,2.832,0.384c0.906,0.257,1.717,0.646,2.432,1.168c0.714,0.523,1.296,1.174,1.744,1.952
			c0.448,0.779,0.704,1.702,0.768,2.769h-4.448C102.306,167.174,101.186,166.224,99.245,166.224z"/>
		<path d="M118.796,163.248v3.04h-3.328v8.192c0,0.768,0.128,1.279,0.384,1.535c0.256,0.257,0.768,0.385,1.536,0.385
			c0.256,0,0.501-0.011,0.736-0.032c0.234-0.021,0.458-0.053,0.672-0.096v3.52c-0.384,0.064-0.811,0.106-1.28,0.128
			c-0.47,0.021-0.928,0.032-1.376,0.032c-0.704,0-1.371-0.048-2-0.145c-0.63-0.096-1.184-0.282-1.664-0.56s-0.859-0.672-1.136-1.184
			c-0.277-0.513-0.416-1.185-0.416-2.017v-9.76h-2.752v-3.04h2.752v-4.96h4.544v4.96H118.796z"/>
		<path d="M121.1,160.688v-3.744h4.544v3.744H121.1z M125.644,163.248v16.544H121.1v-16.544H125.644z"/>
		<path d="M133.324,179.792l-5.664-16.544h4.768l3.488,11.296h0.064l3.488-11.296h4.512l-5.6,16.544H133.324z"/>
		<path d="M145.996,160.688v-3.744h4.544v3.744H145.996z M150.54,163.248v16.544h-4.544v-16.544H150.54z"/>
		<path d="M163.211,163.248v3.04h-3.328v8.192c0,0.768,0.128,1.279,0.384,1.535c0.256,0.257,0.768,0.385,1.536,0.385
			c0.256,0,0.501-0.011,0.736-0.032c0.234-0.021,0.458-0.053,0.672-0.096v3.52c-0.384,0.064-0.811,0.106-1.28,0.128
			c-0.47,0.021-0.928,0.032-1.376,0.032c-0.704,0-1.371-0.048-2-0.145c-0.63-0.096-1.184-0.282-1.664-0.56s-0.859-0.672-1.136-1.184
			c-0.277-0.513-0.416-1.185-0.416-2.017v-9.76h-2.752v-3.04h2.752v-4.96h4.544v4.96H163.211z"/>
		<path d="M171.499,184.72c-0.875,0.576-2.091,0.864-3.648,0.864c-0.469,0-0.934-0.016-1.392-0.048
			c-0.459-0.032-0.923-0.069-1.392-0.112v-3.744c0.426,0.043,0.864,0.085,1.312,0.128c0.448,0.043,0.896,0.054,1.344,0.032
			c0.597-0.063,1.04-0.299,1.328-0.704s0.432-0.854,0.432-1.344c0-0.362-0.064-0.704-0.192-1.024l-5.792-15.52h4.832l3.744,11.328
			h0.064l3.616-11.328h4.704l-6.912,18.592C173.056,183.184,172.374,184.144,171.499,184.72z"/>
		<path d="M196.203,163.456c-0.555,2.443-0.832,4.923-0.832,7.439c0,2.561,0.272,5.067,0.816,7.521s1.424,4.843,2.64,7.168h-3.776
			c-1.344-2.197-2.384-4.512-3.12-6.944c-0.736-2.432-1.104-4.906-1.104-7.424c0-1.194,0.09-2.448,0.272-3.76
			c0.181-1.312,0.448-2.618,0.8-3.92c0.352-1.301,0.789-2.561,1.312-3.776c0.522-1.216,1.136-2.336,1.84-3.359h3.808
			C197.643,158.661,196.758,161.014,196.203,163.456z"/>
		<path d="M206.475,174.864v4.928h-5.024v-4.928H206.475z M217.131,174.864v4.928h-5.024v-4.928H217.131z M227.787,174.864v4.928
			h-5.024v-4.928H227.787z"/>
		<path d="M233.051,178.56c0.565-2.421,0.848-4.89,0.848-7.407c0-2.561-0.278-5.077-0.832-7.553
			c-0.555-2.474-1.419-4.874-2.592-7.199h3.744c1.344,2.197,2.384,4.522,3.12,6.976c0.736,2.453,1.104,4.939,1.104,7.456
			c0,1.195-0.085,2.448-0.256,3.76c-0.171,1.312-0.432,2.613-0.784,3.904s-0.795,2.544-1.328,3.76s-1.152,2.325-1.856,3.328h-3.776
			C231.616,183.322,232.485,180.981,233.051,178.56z"/>
		<path d="M254.283,154.64v31.969h-3.424V154.64H254.283z"/>
		<path d="M263.978,174.864v4.928h-5.023v-4.928H263.978z M274.634,174.864v4.928h-5.024v-4.928H274.634z M285.291,174.864v4.928
			h-5.024v-4.928H285.291z"/>
		<path d="M293.418,154.64v31.969h-3.424V154.64H293.418z"/>
		<path d="M313.097,159.984c-0.384,0-0.688,0.074-0.912,0.224c-0.224,0.149-0.399,0.336-0.527,0.56
			c-0.128,0.225-0.208,0.476-0.24,0.752c-0.032,0.278-0.048,0.545-0.048,0.801v4.863c0,0.79-0.123,1.425-0.368,1.904
			c-0.245,0.48-0.533,0.854-0.864,1.12s-0.678,0.453-1.04,0.56c-0.362,0.107-0.661,0.172-0.896,0.192v0.096
			c0.234,0.021,0.533,0.092,0.896,0.208c0.362,0.118,0.709,0.31,1.04,0.576c0.331,0.268,0.619,0.619,0.864,1.056
			c0.245,0.438,0.368,0.998,0.368,1.681v5.12c0,0.234,0.016,0.49,0.048,0.768s0.112,0.528,0.24,0.752
			c0.128,0.225,0.304,0.411,0.527,0.561c0.225,0.148,0.528,0.224,0.912,0.224h1.729v3.584h-4.064c-0.363,0-0.773-0.091-1.231-0.272
			c-0.459-0.181-0.886-0.447-1.28-0.8c-0.396-0.352-0.731-0.8-1.008-1.344c-0.277-0.544-0.416-1.179-0.416-1.904v-6.208
			c0-0.49-0.107-0.906-0.32-1.248c-0.214-0.341-0.47-0.612-0.768-0.815c-0.3-0.203-0.619-0.353-0.96-0.448
			c-0.342-0.096-0.63-0.144-0.864-0.144v-2.784c0.234,0,0.522-0.048,0.864-0.145c0.341-0.096,0.66-0.256,0.96-0.479
			c0.298-0.225,0.554-0.522,0.768-0.896c0.213-0.373,0.32-0.826,0.32-1.359v-6.017c0-0.725,0.139-1.359,0.416-1.903
			c0.276-0.544,0.612-0.992,1.008-1.345c0.395-0.352,0.821-0.618,1.28-0.8c0.458-0.181,0.868-0.271,1.231-0.271h4.064v3.584H313.097
			z"/>
	</g>
	<rect x="171.425" y="311" fill="#B6EBF8" width="142" height="49"/>
	<g enable-background="new    ">
		<path d="M183.841,328.412v-4.224h18.72v4.224h-6.848v18.624h-5.024v-18.624H183.841z"/>
	</g>
	<g enable-background="new    ">
		<path d="M206.913,343.068c0.683,0.661,1.664,0.992,2.944,0.992c0.917,0,1.707-0.229,2.368-0.688
			c0.661-0.458,1.067-0.944,1.216-1.456h4c-0.64,1.984-1.622,3.403-2.944,4.256c-1.323,0.854-2.923,1.28-4.8,1.28
			c-1.301,0-2.475-0.208-3.52-0.624c-1.045-0.416-1.931-1.008-2.656-1.776c-0.726-0.768-1.286-1.685-1.68-2.752
			c-0.395-1.066-0.592-2.239-0.592-3.52c0-1.237,0.202-2.389,0.608-3.456c0.405-1.066,0.981-1.989,1.728-2.769
			c0.747-0.778,1.637-1.392,2.672-1.84c1.035-0.447,2.181-0.672,3.44-0.672c1.408,0,2.635,0.272,3.68,0.816
			c1.045,0.544,1.904,1.274,2.576,2.191c0.672,0.918,1.157,1.963,1.456,3.137c0.299,1.173,0.405,2.399,0.32,3.68h-11.936
			C205.857,341.34,206.23,342.407,206.913,343.068z M212.049,334.364c-0.544-0.597-1.371-0.896-2.48-0.896
			c-0.726,0-1.328,0.123-1.808,0.368c-0.48,0.246-0.864,0.55-1.152,0.912c-0.288,0.363-0.491,0.747-0.608,1.152
			c-0.118,0.405-0.187,0.768-0.208,1.088h7.392C212.972,335.836,212.593,334.962,212.049,334.364z"/>
		<path d="M219.201,330.492h5.184l2.912,4.32l2.88-4.32h5.024l-5.44,7.744l6.112,8.8h-5.184l-3.456-5.216l-3.456,5.216h-5.088
			l5.952-8.704L219.201,330.492z"/>
		<path d="M246.688,330.492v3.04h-3.328v8.192c0,0.768,0.128,1.279,0.384,1.535c0.256,0.257,0.768,0.385,1.536,0.385
			c0.256,0,0.501-0.011,0.736-0.032c0.234-0.021,0.458-0.053,0.672-0.096v3.52c-0.384,0.064-0.811,0.106-1.28,0.128
			c-0.47,0.021-0.928,0.032-1.376,0.032c-0.704,0-1.371-0.048-2-0.145c-0.63-0.096-1.184-0.282-1.664-0.56s-0.859-0.672-1.136-1.184
			c-0.277-0.513-0.416-1.185-0.416-2.017v-9.76h-2.752v-3.04h2.752v-4.96h4.544v4.96H246.688z"/>
		<path d="M254.176,330.7c-0.555,2.443-0.832,4.923-0.832,7.439c0,2.561,0.272,5.067,0.816,7.521s1.424,4.843,2.64,7.168h-3.776
			c-1.344-2.197-2.384-4.512-3.12-6.944c-0.736-2.432-1.104-4.906-1.104-7.424c0-1.194,0.09-2.448,0.272-3.76
			c0.181-1.312,0.448-2.618,0.8-3.92c0.352-1.301,0.789-2.561,1.312-3.776c0.522-1.216,1.136-2.336,1.84-3.359h3.808
			C255.616,325.905,254.731,328.258,254.176,330.7z"/>
		<path d="M264.448,342.108v4.928h-5.024v-4.928H264.448z M275.104,342.108v4.928h-5.024v-4.928H275.104z M285.76,342.108v4.928
			h-5.024v-4.928H285.76z"/>
		<path d="M291.024,345.804c0.565-2.421,0.848-4.89,0.848-7.407c0-2.561-0.278-5.077-0.832-7.553
			c-0.555-2.474-1.419-4.874-2.592-7.199h3.744c1.344,2.197,2.384,4.522,3.12,6.976c0.736,2.453,1.104,4.939,1.104,7.456
			c0,1.195-0.085,2.448-0.256,3.76c-0.171,1.312-0.432,2.613-0.784,3.904s-0.795,2.544-1.328,3.76s-1.152,2.325-1.856,3.328h-3.776
			C289.589,350.566,290.458,348.226,291.024,345.804z"/>
	</g>
	<rect x="171.268" y="381.866" fill="#B6EBF8" width="182" height="49"/>
	<g enable-background="new    ">
		<path d="M195.228,395.055c1.088,0,2.08,0.096,2.976,0.288c0.896,0.191,1.664,0.507,2.304,0.943c0.64,0.438,1.136,1.02,1.488,1.744
			c0.352,0.726,0.528,1.621,0.528,2.688c0,1.151-0.261,2.111-0.784,2.88c-0.523,0.768-1.296,1.397-2.32,1.888
			c1.408,0.405,2.458,1.115,3.152,2.128c0.693,1.014,1.04,2.235,1.04,3.664c0,1.152-0.224,2.149-0.672,2.992
			c-0.448,0.843-1.051,1.531-1.808,2.063c-0.757,0.534-1.621,0.929-2.592,1.185c-0.971,0.256-1.968,0.384-2.992,0.384h-11.072
			v-22.848H195.228z M194.587,404.303c0.896,0,1.632-0.214,2.208-0.641c0.576-0.426,0.864-1.12,0.864-2.08
			c0-0.532-0.096-0.97-0.288-1.312c-0.192-0.341-0.448-0.608-0.768-0.8c-0.32-0.192-0.688-0.325-1.104-0.4
			c-0.416-0.074-0.848-0.112-1.296-0.112H189.5v5.345H194.587z M194.875,413.998c0.491,0,0.96-0.048,1.408-0.144
			c0.448-0.096,0.842-0.256,1.184-0.48c0.341-0.224,0.613-0.527,0.816-0.912c0.202-0.384,0.304-0.874,0.304-1.472
			c0-1.173-0.331-2.011-0.992-2.512c-0.662-0.501-1.536-0.752-2.624-0.752H189.5v6.271H194.875z"/>
		<path d="M217.724,417.902v-2.304h-0.096c-0.576,0.96-1.323,1.653-2.24,2.08c-0.917,0.426-1.856,0.64-2.816,0.64
			c-1.216,0-2.213-0.16-2.992-0.48c-0.779-0.319-1.392-0.772-1.84-1.359c-0.448-0.587-0.763-1.301-0.944-2.145
			c-0.182-0.842-0.272-1.775-0.272-2.8v-10.176h4.544v9.344c0,1.365,0.213,2.384,0.64,3.057c0.426,0.672,1.184,1.008,2.272,1.008
			c1.237,0,2.133-0.368,2.688-1.104c0.554-0.735,0.832-1.946,0.832-3.632v-8.672h4.544v16.544H217.724z"/>
		<path d="M234.587,401.358v3.04h-3.328v8.192c0,0.768,0.128,1.279,0.384,1.535c0.256,0.257,0.768,0.385,1.536,0.385
			c0.256,0,0.501-0.011,0.736-0.032c0.234-0.021,0.458-0.053,0.672-0.096v3.52c-0.384,0.064-0.811,0.106-1.28,0.128
			c-0.47,0.021-0.928,0.032-1.376,0.032c-0.704,0-1.371-0.048-2-0.145c-0.63-0.096-1.184-0.282-1.664-0.56s-0.859-0.672-1.136-1.184
			c-0.277-0.513-0.416-1.185-0.416-2.017v-9.76h-2.752v-3.04h2.752v-4.96h4.544v4.96H234.587z"/>
		<path d="M245.851,401.358v3.04h-3.328v8.192c0,0.768,0.128,1.279,0.384,1.535c0.256,0.257,0.768,0.385,1.536,0.385
			c0.256,0,0.501-0.011,0.736-0.032c0.234-0.021,0.458-0.053,0.672-0.096v3.52c-0.384,0.064-0.811,0.106-1.28,0.128
			c-0.47,0.021-0.928,0.032-1.376,0.032c-0.704,0-1.371-0.048-2-0.145c-0.63-0.096-1.184-0.282-1.664-0.56s-0.859-0.672-1.136-1.184
			c-0.277-0.513-0.416-1.185-0.416-2.017v-9.76h-2.752v-3.04h2.752v-4.96h4.544v4.96H245.851z"/>
		<path d="M248.123,406.046c0.405-1.076,0.981-1.994,1.728-2.752c0.747-0.757,1.643-1.344,2.688-1.76
			c1.045-0.416,2.218-0.624,3.52-0.624s2.48,0.208,3.536,0.624c1.056,0.416,1.957,1.003,2.704,1.76
			c0.747,0.758,1.322,1.676,1.728,2.752c0.405,1.078,0.608,2.278,0.608,3.601c0,1.323-0.203,2.518-0.608,3.584
			c-0.406,1.066-0.981,1.979-1.728,2.736c-0.747,0.757-1.648,1.339-2.704,1.743c-1.056,0.405-2.235,0.608-3.536,0.608
			s-2.475-0.203-3.52-0.608c-1.046-0.404-1.942-0.986-2.688-1.743c-0.747-0.758-1.323-1.67-1.728-2.736
			c-0.406-1.066-0.608-2.261-0.608-3.584C247.514,408.324,247.717,407.124,248.123,406.046z M252.25,411.582
			c0.128,0.63,0.346,1.195,0.656,1.696c0.309,0.502,0.72,0.901,1.232,1.2c0.512,0.299,1.152,0.448,1.92,0.448
			c0.768,0,1.413-0.149,1.936-0.448c0.522-0.299,0.938-0.698,1.248-1.2c0.309-0.501,0.528-1.066,0.656-1.696
			c0.128-0.629,0.192-1.274,0.192-1.936s-0.064-1.312-0.192-1.952s-0.347-1.205-0.656-1.696c-0.31-0.49-0.726-0.891-1.248-1.199
			c-0.523-0.31-1.168-0.465-1.936-0.465c-0.768,0-1.408,0.155-1.92,0.465c-0.512,0.309-0.923,0.709-1.232,1.199
			c-0.31,0.491-0.528,1.057-0.656,1.696s-0.192,1.291-0.192,1.952S252.123,410.953,252.25,411.582z"/>
		<path d="M271.898,401.358v2.304h0.096c0.576-0.96,1.322-1.658,2.24-2.096c0.917-0.438,1.856-0.656,2.816-0.656
			c1.216,0,2.213,0.166,2.992,0.496c0.779,0.331,1.392,0.79,1.84,1.376c0.448,0.587,0.762,1.302,0.944,2.145
			c0.181,0.843,0.272,1.775,0.272,2.8v10.176h-4.544v-9.344c0-1.365-0.213-2.384-0.64-3.057c-0.427-0.672-1.184-1.008-2.272-1.008
			c-1.237,0-2.133,0.368-2.688,1.104c-0.555,0.735-0.832,1.946-0.832,3.632v8.672h-4.544v-16.544H271.898z"/>
		<path d="M291.866,401.566c-0.555,2.443-0.832,4.923-0.832,7.439c0,2.561,0.272,5.067,0.816,7.521s1.424,4.843,2.64,7.168h-3.776
			c-1.344-2.197-2.384-4.512-3.12-6.944c-0.736-2.432-1.104-4.906-1.104-7.424c0-1.194,0.09-2.448,0.272-3.76
			c0.181-1.312,0.448-2.618,0.8-3.92c0.352-1.301,0.789-2.561,1.312-3.776c0.522-1.216,1.136-2.336,1.84-3.359h3.808
			C293.306,396.771,292.42,399.124,291.866,401.566z"/>
		<path d="M302.137,412.975v4.928h-5.024v-4.928H302.137z M312.793,412.975v4.928h-5.024v-4.928H312.793z M323.449,412.975v4.928
			h-5.024v-4.928H323.449z"/>
		<path d="M328.713,416.67c0.565-2.421,0.849-4.89,0.849-7.407c0-2.561-0.278-5.077-0.832-7.553
			c-0.556-2.474-1.419-4.874-2.592-7.199h3.744c1.345,2.197,2.385,4.522,3.121,6.976c0.735,2.453,1.104,4.939,1.104,7.456
			c0,1.195-0.086,2.448-0.256,3.76c-0.172,1.312-0.432,2.613-0.784,3.904s-0.795,2.544-1.328,3.76s-1.151,2.325-1.856,3.328h-3.775
			C327.278,421.433,328.148,419.092,328.713,416.67z"/>
	</g>
	<rect x="115.248" y="512.26" fill="#B6EBF8" width="242" height="49"/>
	<g enable-background="new    ">
		<path d="M134.448,525.448l9.536,15.328h0.064v-15.328h4.704v22.848h-5.024L134.224,533h-0.064v15.296h-4.704v-22.848H134.448z"/>
		<path d="M152.496,536.84c0.064-1.066,0.331-1.952,0.8-2.656s1.066-1.269,1.792-1.695c0.725-0.427,1.541-0.73,2.448-0.912
			c0.906-0.182,1.818-0.272,2.736-0.272c0.832,0,1.674,0.06,2.528,0.176c0.853,0.118,1.632,0.348,2.336,0.688
			c0.704,0.342,1.28,0.816,1.728,1.424c0.448,0.608,0.672,1.414,0.672,2.416v8.608c0,0.747,0.042,1.461,0.128,2.144
			c0.085,0.684,0.234,1.195,0.448,1.536h-4.608c-0.085-0.256-0.155-0.517-0.208-0.784c-0.053-0.267-0.091-0.538-0.112-0.815
			c-0.726,0.747-1.579,1.27-2.56,1.567c-0.981,0.299-1.984,0.448-3.008,0.448c-0.789,0-1.525-0.096-2.208-0.288
			c-0.683-0.192-1.28-0.49-1.792-0.896c-0.512-0.405-0.912-0.917-1.2-1.536s-0.432-1.354-0.432-2.208
			c0-0.938,0.165-1.712,0.496-2.32c0.331-0.608,0.757-1.093,1.28-1.456c0.522-0.362,1.12-0.635,1.792-0.815
			c0.672-0.182,1.349-0.325,2.032-0.433c0.683-0.106,1.354-0.191,2.016-0.256c0.661-0.064,1.248-0.16,1.76-0.288
			c0.512-0.128,0.917-0.314,1.216-0.56c0.298-0.245,0.437-0.603,0.416-1.072c0-0.49-0.08-0.88-0.24-1.168s-0.374-0.512-0.64-0.672
			c-0.267-0.16-0.576-0.267-0.928-0.32c-0.352-0.053-0.731-0.08-1.136-0.08c-0.896,0-1.6,0.192-2.112,0.576
			c-0.512,0.384-0.811,1.024-0.896,1.92H152.496z M162.992,540.2c-0.192,0.171-0.432,0.304-0.72,0.399
			c-0.288,0.097-0.598,0.177-0.928,0.24c-0.331,0.064-0.677,0.117-1.04,0.16c-0.363,0.043-0.726,0.096-1.088,0.16
			c-0.341,0.063-0.677,0.149-1.008,0.256c-0.331,0.106-0.619,0.251-0.864,0.432c-0.245,0.182-0.443,0.411-0.592,0.688
			c-0.149,0.277-0.224,0.629-0.224,1.056c0,0.405,0.075,0.747,0.224,1.024c0.149,0.277,0.352,0.496,0.608,0.655
			c0.256,0.16,0.555,0.272,0.896,0.336c0.341,0.064,0.693,0.097,1.056,0.097c0.896,0,1.589-0.149,2.08-0.448
			c0.49-0.299,0.853-0.656,1.088-1.072c0.234-0.416,0.378-0.837,0.432-1.264c0.053-0.427,0.08-0.768,0.08-1.024V540.2z"/>
		<path d="M175.152,548.296l-5.664-16.544h4.768l3.488,11.296h0.064l3.488-11.296h4.512l-5.6,16.544H175.152z"/>
		<path d="M187.823,529.192v-3.744h4.544v3.744H187.823z M192.367,531.752v16.544h-4.544v-16.544H192.367z"/>
		<path d="M211.583,549.512c-0.181,0.854-0.571,1.648-1.168,2.384c-0.597,0.736-1.461,1.36-2.592,1.872
			c-1.131,0.513-2.646,0.769-4.544,0.769c-0.811,0-1.638-0.102-2.48-0.305c-0.843-0.202-1.611-0.517-2.304-0.943
			c-0.693-0.427-1.27-0.977-1.728-1.648c-0.459-0.672-0.72-1.478-0.784-2.416h4.512c0.213,0.854,0.629,1.445,1.248,1.776
			c0.619,0.33,1.333,0.496,2.144,0.496c1.28,0,2.213-0.384,2.8-1.152c0.586-0.768,0.869-1.739,0.848-2.912v-2.176h-0.064
			c-0.491,0.875-1.189,1.521-2.096,1.937c-0.907,0.415-1.861,0.623-2.864,0.623c-1.238,0-2.304-0.218-3.2-0.655
			s-1.632-1.035-2.208-1.792c-0.576-0.757-0.998-1.643-1.264-2.656c-0.267-1.013-0.4-2.085-0.4-3.216
			c0-1.066,0.155-2.097,0.464-3.088c0.309-0.992,0.762-1.867,1.36-2.624c0.597-0.757,1.338-1.36,2.224-1.809
			c0.885-0.447,1.904-0.672,3.056-0.672c1.088,0,2.042,0.203,2.864,0.608c0.821,0.405,1.509,1.088,2.064,2.048h0.064v-2.208h4.32
			v15.488C211.855,547.901,211.764,548.658,211.583,549.512z M205.359,544.008c0.49-0.256,0.896-0.597,1.216-1.023
			s0.56-0.912,0.72-1.456c0.16-0.544,0.24-1.115,0.24-1.713c0-0.682-0.064-1.327-0.192-1.936s-0.342-1.146-0.64-1.616
			c-0.299-0.469-0.693-0.842-1.184-1.12c-0.491-0.276-1.109-0.416-1.856-0.416c-0.64,0-1.189,0.128-1.648,0.385
			c-0.459,0.256-0.843,0.603-1.152,1.04c-0.31,0.438-0.534,0.938-0.672,1.504s-0.208,1.157-0.208,1.775
			c0,0.598,0.059,1.189,0.176,1.776c0.117,0.587,0.32,1.115,0.608,1.584c0.288,0.47,0.667,0.854,1.136,1.152
			c0.469,0.299,1.056,0.447,1.76,0.447C204.303,544.392,204.868,544.264,205.359,544.008z"/>
		<path d="M215.311,536.84c0.064-1.066,0.331-1.952,0.8-2.656s1.066-1.269,1.792-1.695c0.725-0.427,1.541-0.73,2.448-0.912
			c0.906-0.182,1.818-0.272,2.736-0.272c0.832,0,1.674,0.06,2.528,0.176c0.853,0.118,1.632,0.348,2.336,0.688
			c0.704,0.342,1.28,0.816,1.728,1.424c0.448,0.608,0.672,1.414,0.672,2.416v8.608c0,0.747,0.042,1.461,0.128,2.144
			c0.085,0.684,0.234,1.195,0.448,1.536h-4.608c-0.085-0.256-0.155-0.517-0.208-0.784c-0.053-0.267-0.091-0.538-0.112-0.815
			c-0.726,0.747-1.579,1.27-2.56,1.567c-0.981,0.299-1.984,0.448-3.008,0.448c-0.789,0-1.525-0.096-2.208-0.288
			c-0.683-0.192-1.28-0.49-1.792-0.896c-0.512-0.405-0.912-0.917-1.2-1.536s-0.432-1.354-0.432-2.208
			c0-0.938,0.165-1.712,0.496-2.32c0.331-0.608,0.757-1.093,1.28-1.456c0.522-0.362,1.12-0.635,1.792-0.815
			c0.672-0.182,1.349-0.325,2.032-0.433c0.683-0.106,1.354-0.191,2.016-0.256c0.661-0.064,1.248-0.16,1.76-0.288
			c0.512-0.128,0.917-0.314,1.216-0.56c0.298-0.245,0.437-0.603,0.416-1.072c0-0.49-0.08-0.88-0.24-1.168s-0.374-0.512-0.64-0.672
			c-0.267-0.16-0.576-0.267-0.928-0.32c-0.352-0.053-0.731-0.08-1.136-0.08c-0.896,0-1.6,0.192-2.112,0.576
			c-0.512,0.384-0.811,1.024-0.896,1.92H215.311z M225.807,540.2c-0.192,0.171-0.432,0.304-0.72,0.399
			c-0.288,0.097-0.598,0.177-0.928,0.24c-0.331,0.064-0.677,0.117-1.04,0.16c-0.363,0.043-0.726,0.096-1.088,0.16
			c-0.341,0.063-0.677,0.149-1.008,0.256c-0.331,0.106-0.619,0.251-0.864,0.432c-0.245,0.182-0.443,0.411-0.592,0.688
			c-0.149,0.277-0.224,0.629-0.224,1.056c0,0.405,0.075,0.747,0.224,1.024c0.149,0.277,0.352,0.496,0.608,0.655
			c0.256,0.16,0.555,0.272,0.896,0.336c0.341,0.064,0.693,0.097,1.056,0.097c0.896,0,1.589-0.149,2.08-0.448
			c0.49-0.299,0.853-0.656,1.088-1.072c0.234-0.416,0.378-0.837,0.432-1.264c0.053-0.427,0.08-0.768,0.08-1.024V540.2z"/>
		<path d="M242.958,531.752v3.04h-3.328v8.192c0,0.768,0.128,1.279,0.384,1.535c0.256,0.257,0.768,0.385,1.536,0.385
			c0.256,0,0.501-0.011,0.736-0.032c0.234-0.021,0.458-0.053,0.672-0.096v3.52c-0.384,0.064-0.811,0.106-1.28,0.128
			c-0.47,0.021-0.928,0.032-1.376,0.032c-0.704,0-1.371-0.048-2-0.145c-0.63-0.096-1.184-0.282-1.664-0.56s-0.859-0.672-1.136-1.184
			c-0.277-0.513-0.416-1.185-0.416-2.017v-9.76h-2.752v-3.04h2.752v-4.96h4.544v4.96H242.958z"/>
		<path d="M245.262,529.192v-3.744h4.544v3.744H245.262z M249.806,531.752v16.544h-4.544v-16.544H249.806z"/>
		<path d="M253.486,536.439c0.405-1.076,0.981-1.994,1.728-2.752c0.747-0.757,1.643-1.344,2.688-1.76
			c1.045-0.416,2.218-0.624,3.52-0.624s2.48,0.208,3.536,0.624c1.056,0.416,1.957,1.003,2.704,1.76
			c0.747,0.758,1.322,1.676,1.728,2.752c0.405,1.078,0.608,2.278,0.608,3.601c0,1.323-0.203,2.518-0.608,3.584
			c-0.406,1.066-0.981,1.979-1.728,2.736c-0.747,0.757-1.648,1.339-2.704,1.743c-1.056,0.405-2.235,0.608-3.536,0.608
			s-2.475-0.203-3.52-0.608c-1.046-0.404-1.942-0.986-2.688-1.743c-0.747-0.758-1.323-1.67-1.728-2.736
			c-0.406-1.066-0.608-2.261-0.608-3.584C252.878,538.718,253.081,537.518,253.486,536.439z M257.614,541.976
			c0.128,0.63,0.346,1.195,0.656,1.696c0.309,0.502,0.72,0.901,1.232,1.2c0.512,0.299,1.152,0.448,1.92,0.448
			c0.768,0,1.413-0.149,1.936-0.448c0.522-0.299,0.938-0.698,1.248-1.2c0.309-0.501,0.528-1.066,0.656-1.696
			c0.128-0.629,0.192-1.274,0.192-1.936s-0.064-1.312-0.192-1.952s-0.347-1.205-0.656-1.696c-0.31-0.49-0.726-0.891-1.248-1.199
			c-0.523-0.31-1.168-0.465-1.936-0.465c-0.768,0-1.408,0.155-1.92,0.465c-0.512,0.309-0.923,0.709-1.232,1.199
			c-0.31,0.491-0.528,1.057-0.656,1.696s-0.192,1.291-0.192,1.952S257.486,541.347,257.614,541.976z"/>
		<path d="M277.262,531.752v2.304h0.096c0.576-0.96,1.322-1.658,2.24-2.096c0.917-0.438,1.856-0.656,2.816-0.656
			c1.216,0,2.213,0.166,2.992,0.496c0.779,0.331,1.392,0.79,1.84,1.376c0.448,0.587,0.762,1.302,0.944,2.145
			c0.181,0.843,0.272,1.775,0.272,2.8v10.176h-4.544v-9.344c0-1.365-0.213-2.384-0.64-3.057c-0.427-0.672-1.184-1.008-2.272-1.008
			c-1.237,0-2.133,0.368-2.688,1.104c-0.555,0.735-0.832,1.946-0.832,3.632v8.672h-4.544v-16.544H277.262z"/>
		<path d="M297.229,531.96c-0.555,2.443-0.832,4.923-0.832,7.439c0,2.561,0.272,5.067,0.816,7.521s1.424,4.843,2.64,7.168h-3.776
			c-1.344-2.197-2.384-4.512-3.12-6.944c-0.736-2.432-1.104-4.906-1.104-7.424c0-1.194,0.09-2.448,0.272-3.76
			c0.181-1.312,0.448-2.618,0.8-3.92c0.352-1.301,0.789-2.561,1.312-3.776c0.522-1.216,1.136-2.336,1.84-3.359h3.808
			C298.669,527.165,297.784,529.518,297.229,531.96z"/>
		<path d="M307.501,543.368v4.928h-5.024v-4.928H307.501z M318.157,543.368v4.928h-5.024v-4.928H318.157z M328.813,543.368v4.928
			h-5.024v-4.928H328.813z"/>
		<path d="M334.077,547.063c0.565-2.421,0.848-4.89,0.848-7.407c0-2.561-0.277-5.077-0.832-7.553
			c-0.555-2.474-1.419-4.874-2.592-7.199h3.744c1.344,2.197,2.384,4.522,3.12,6.976s1.104,4.939,1.104,7.456
			c0,1.195-0.085,2.448-0.256,3.76c-0.171,1.312-0.432,2.613-0.784,3.904c-0.352,1.291-0.795,2.544-1.327,3.76
			c-0.534,1.216-1.152,2.325-1.856,3.328h-3.776C332.643,551.826,333.512,549.485,334.077,547.063z"/>
	</g>
	<rect x="59.527" y="580.291" fill="#B6EBF8" width="21" height="49"/>
	<g enable-background="new    ">
		<path d="M66.428,618.535c0.384,0,0.688-0.075,0.912-0.224c0.224-0.149,0.4-0.336,0.528-0.561c0.128-0.224,0.208-0.475,0.24-0.752
			c0.032-0.277,0.048-0.533,0.048-0.768v-5.12c0-0.683,0.123-1.243,0.368-1.681c0.245-0.437,0.533-0.788,0.864-1.056
			c0.331-0.267,0.677-0.458,1.04-0.576c0.362-0.116,0.661-0.187,0.896-0.208v-0.096c-0.235-0.021-0.534-0.085-0.896-0.192
			c-0.363-0.106-0.709-0.293-1.04-0.56c-0.331-0.267-0.619-0.64-0.864-1.12c-0.246-0.479-0.368-1.114-0.368-1.904v-4.863
			c0-0.256-0.016-0.522-0.048-0.801c-0.032-0.276-0.112-0.527-0.24-0.752c-0.128-0.224-0.304-0.41-0.528-0.56
			c-0.224-0.149-0.528-0.224-0.912-0.224H64.7v-3.584h4.064c0.362,0,0.773,0.091,1.232,0.271c0.458,0.182,0.885,0.448,1.28,0.8
			c0.395,0.353,0.73,0.801,1.008,1.345c0.277,0.544,0.416,1.179,0.416,1.903v6.017c0,0.533,0.106,0.986,0.32,1.359
			c0.213,0.374,0.469,0.672,0.768,0.896c0.299,0.224,0.619,0.384,0.96,0.479c0.341,0.097,0.64,0.145,0.896,0.145v2.784
			c-0.256,0-0.555,0.048-0.896,0.144s-0.661,0.245-0.96,0.448s-0.555,0.475-0.768,0.815c-0.213,0.342-0.32,0.758-0.32,1.248v6.208
			c0,0.726-0.139,1.36-0.416,1.904c-0.277,0.544-0.613,0.992-1.008,1.344c-0.395,0.353-0.822,0.619-1.28,0.8
			c-0.459,0.182-0.87,0.272-1.232,0.272H64.7v-3.584H66.428z"/>
	</g>
	<rect x="113.386" y="232.441" fill="#B6EBF8" width="23.764" height="252.284"/>
	<rect x="116.221" y="435.725" fill="#B6EBF8" width="21" height="49"/>
	<g enable-background="new    ">
		<path d="M123.121,473.969c0.384,0,0.688-0.075,0.912-0.224c0.224-0.149,0.4-0.336,0.528-0.561c0.128-0.224,0.208-0.475,0.24-0.752
			c0.032-0.277,0.048-0.533,0.048-0.768v-5.12c0-0.683,0.123-1.243,0.368-1.681c0.245-0.437,0.533-0.788,0.864-1.056
			c0.331-0.267,0.677-0.458,1.04-0.576c0.362-0.116,0.661-0.187,0.896-0.208v-0.096c-0.235-0.021-0.534-0.085-0.896-0.192
			c-0.363-0.106-0.709-0.293-1.04-0.56c-0.331-0.267-0.619-0.64-0.864-1.12c-0.246-0.479-0.368-1.114-0.368-1.904v-4.863
			c0-0.256-0.016-0.522-0.048-0.801c-0.032-0.276-0.112-0.527-0.24-0.752c-0.128-0.224-0.304-0.41-0.528-0.56
			c-0.224-0.149-0.528-0.224-0.912-0.224h-1.728v-3.584h4.064c0.362,0,0.773,0.091,1.232,0.271c0.458,0.182,0.885,0.448,1.28,0.8
			c0.395,0.353,0.73,0.801,1.008,1.345c0.277,0.544,0.416,1.179,0.416,1.903v6.017c0,0.533,0.106,0.986,0.32,1.359
			c0.213,0.374,0.469,0.672,0.768,0.896c0.299,0.224,0.619,0.384,0.96,0.479c0.341,0.097,0.64,0.145,0.896,0.145v2.784
			c-0.256,0-0.555,0.048-0.896,0.144s-0.661,0.245-0.96,0.448s-0.555,0.475-0.768,0.815c-0.213,0.342-0.32,0.758-0.32,1.248v6.208
			c0,0.726-0.139,1.36-0.416,1.904c-0.277,0.544-0.613,0.992-1.008,1.344c-0.395,0.353-0.822,0.619-1.28,0.8
			c-0.459,0.182-0.87,0.272-1.232,0.272h-4.064v-3.584H123.121z"/>
	</g>
	<rect x="113.41" y="228.795" fill="#B6EBF8" width="243" height="49"/>
	<g enable-background="new    ">
		<path d="M141.682,241.983v4.224h-11.04v5.28h9.568v3.903h-9.568v9.44h-5.024v-22.848H141.682z"/>
		<path d="M144.209,252.975c0.405-1.076,0.981-1.994,1.728-2.752c0.747-0.757,1.643-1.344,2.688-1.76
			c1.045-0.416,2.218-0.624,3.52-0.624s2.48,0.208,3.536,0.624c1.056,0.416,1.957,1.003,2.704,1.76
			c0.747,0.758,1.322,1.676,1.728,2.752c0.405,1.078,0.608,2.278,0.608,3.601c0,1.323-0.203,2.518-0.608,3.584
			c-0.406,1.066-0.981,1.979-1.728,2.736c-0.747,0.757-1.648,1.339-2.704,1.743c-1.056,0.405-2.235,0.608-3.536,0.608
			s-2.475-0.203-3.52-0.608c-1.046-0.404-1.942-0.986-2.688-1.743c-0.747-0.758-1.323-1.67-1.728-2.736
			c-0.406-1.066-0.608-2.261-0.608-3.584C143.601,255.253,143.804,254.053,144.209,252.975z M148.337,258.511
			c0.128,0.63,0.346,1.195,0.656,1.696c0.309,0.502,0.72,0.901,1.232,1.2c0.512,0.299,1.152,0.448,1.92,0.448
			c0.768,0,1.413-0.149,1.936-0.448c0.522-0.299,0.938-0.698,1.248-1.2c0.309-0.501,0.528-1.066,0.656-1.696
			c0.128-0.629,0.192-1.274,0.192-1.936s-0.064-1.312-0.192-1.952s-0.347-1.205-0.656-1.696c-0.31-0.49-0.726-0.891-1.248-1.199
			c-0.523-0.31-1.168-0.465-1.936-0.465c-0.768,0-1.408,0.155-1.92,0.465c-0.512,0.309-0.923,0.709-1.232,1.199
			c-0.31,0.491-0.528,1.057-0.656,1.696s-0.192,1.291-0.192,1.952S148.209,257.882,148.337,258.511z"/>
		<path d="M167.985,248.287v3.072h0.064c0.213-0.513,0.501-0.987,0.864-1.425c0.362-0.437,0.778-0.81,1.248-1.119
			c0.469-0.31,0.97-0.55,1.504-0.721c0.533-0.17,1.088-0.256,1.664-0.256c0.298,0,0.629,0.054,0.992,0.16v4.224
			c-0.213-0.042-0.469-0.08-0.768-0.111c-0.299-0.032-0.587-0.048-0.864-0.048c-0.832,0-1.536,0.139-2.112,0.416
			c-0.576,0.277-1.04,0.655-1.392,1.136c-0.352,0.479-0.603,1.04-0.752,1.68c-0.149,0.64-0.224,1.334-0.224,2.08v7.456h-4.544
			v-16.544H167.985z"/>
		<path d="M180.529,248.287v2.24h0.064c0.597-0.854,1.317-1.515,2.16-1.984c0.842-0.469,1.808-0.704,2.896-0.704
			c1.045,0,2,0.203,2.864,0.608c0.864,0.405,1.52,1.12,1.968,2.144c0.49-0.725,1.157-1.365,2-1.92
			c0.842-0.555,1.84-0.832,2.992-0.832c0.875,0,1.685,0.107,2.432,0.32c0.747,0.213,1.387,0.555,1.92,1.023
			c0.533,0.47,0.949,1.083,1.248,1.841c0.298,0.757,0.448,1.669,0.448,2.735v11.072h-4.544v-9.376c0-0.555-0.021-1.077-0.064-1.568
			c-0.043-0.49-0.16-0.917-0.352-1.279c-0.192-0.363-0.475-0.65-0.848-0.864c-0.374-0.213-0.88-0.32-1.52-0.32
			s-1.158,0.123-1.552,0.368c-0.395,0.245-0.704,0.565-0.928,0.96c-0.224,0.396-0.374,0.843-0.448,1.344
			c-0.075,0.502-0.112,1.009-0.112,1.521v9.216h-4.544v-9.28c0-0.49-0.011-0.976-0.032-1.456c-0.021-0.479-0.112-0.922-0.272-1.328
			c-0.16-0.404-0.427-0.73-0.8-0.976c-0.374-0.245-0.923-0.368-1.648-0.368c-0.214,0-0.496,0.048-0.848,0.145
			c-0.352,0.096-0.693,0.277-1.024,0.544c-0.331,0.267-0.614,0.65-0.848,1.151c-0.235,0.502-0.352,1.158-0.352,1.969v9.6h-4.544
			v-16.544H180.529z"/>
		<path d="M219.312,248.495c-0.555,2.443-0.832,4.923-0.832,7.439c0,2.561,0.272,5.067,0.816,7.521s1.424,4.843,2.64,7.168h-3.776
			c-1.344-2.197-2.384-4.512-3.12-6.944c-0.736-2.432-1.104-4.906-1.104-7.424c0-1.194,0.09-2.448,0.272-3.76
			c0.181-1.312,0.448-2.618,0.8-3.92c0.352-1.301,0.789-2.561,1.312-3.776c0.522-1.216,1.136-2.336,1.84-3.359h3.808
			C220.752,243.7,219.867,246.053,219.312,248.495z"/>
		<path d="M229.584,259.903v4.928h-5.024v-4.928H229.584z M240.24,259.903v4.928h-5.024v-4.928H240.24z M250.896,259.903v4.928
			h-5.024v-4.928H250.896z"/>
		<path d="M256.16,263.599c0.565-2.421,0.848-4.89,0.848-7.407c0-2.561-0.278-5.077-0.832-7.553
			c-0.555-2.474-1.419-4.874-2.592-7.199h3.744c1.344,2.197,2.384,4.522,3.12,6.976c0.736,2.453,1.104,4.939,1.104,7.456
			c0,1.195-0.085,2.448-0.256,3.76c-0.171,1.312-0.432,2.613-0.784,3.904s-0.795,2.544-1.328,3.76s-1.152,2.325-1.856,3.328h-3.776
			C254.725,268.361,255.595,266.021,256.16,263.599z"/>
		<path d="M277.392,239.679v31.969h-3.424v-31.969H277.392z"/>
		<path d="M287.087,259.903v4.928h-5.024v-4.928H287.087z M297.744,259.903v4.928h-5.024v-4.928H297.744z M308.4,259.903v4.928
			h-5.024v-4.928H308.4z"/>
		<path d="M316.528,239.679v31.969h-3.424v-31.969H316.528z"/>
		<path d="M336.207,245.023c-0.385,0-0.688,0.074-0.912,0.224s-0.4,0.336-0.527,0.56c-0.129,0.225-0.209,0.476-0.24,0.752
			c-0.033,0.278-0.049,0.545-0.049,0.801v4.863c0,0.79-0.123,1.425-0.367,1.904c-0.246,0.48-0.533,0.854-0.865,1.12
			c-0.33,0.267-0.678,0.453-1.039,0.56c-0.363,0.107-0.662,0.172-0.896,0.192v0.096c0.234,0.021,0.533,0.092,0.896,0.208
			c0.361,0.118,0.709,0.31,1.039,0.576c0.332,0.268,0.619,0.619,0.865,1.056c0.244,0.438,0.367,0.998,0.367,1.681v5.12
			c0,0.234,0.016,0.49,0.049,0.768c0.031,0.277,0.111,0.528,0.24,0.752c0.127,0.225,0.303,0.411,0.527,0.561
			c0.225,0.148,0.527,0.224,0.912,0.224h1.729v3.584h-4.064c-0.363,0-0.773-0.091-1.232-0.272c-0.459-0.181-0.885-0.447-1.279-0.8
			c-0.396-0.352-0.732-0.8-1.008-1.344c-0.277-0.544-0.416-1.179-0.416-1.904v-6.208c0-0.49-0.107-0.906-0.32-1.248
			c-0.215-0.341-0.471-0.612-0.768-0.815c-0.301-0.203-0.619-0.353-0.961-0.448s-0.629-0.144-0.863-0.144v-2.784
			c0.234,0,0.521-0.048,0.863-0.145c0.342-0.096,0.66-0.256,0.961-0.479c0.297-0.225,0.553-0.522,0.768-0.896
			c0.213-0.373,0.32-0.826,0.32-1.359v-6.017c0-0.725,0.139-1.359,0.416-1.903c0.275-0.544,0.611-0.992,1.008-1.345
			c0.395-0.352,0.82-0.618,1.279-0.8c0.459-0.181,0.869-0.271,1.232-0.271h4.064v3.584H336.207z"/>
	</g>
	<g>
		<path stroke="#000000" d="M458.747,334.488l-9.6-3.6v7.199L458.747,334.488z"/>
	</g>
	<path marker-end="url(#FilledArrow_Marker)" stroke="#000000" d="M449.147,334.488"/>
	<path fill="#CFF4FD" d="M530.079,357.166l-21.26-42.521l-21.261,42.521H530.079z"/>
	<path fill="none" stroke="#000000" stroke-linecap="round" stroke-linejoin="round" d="M530.079,357.166l-21.26-42.521
		l-21.261,42.521H530.079z"/>
	<path fill="#CFF4FD" d="M530.079,426.209l-21.26-42.52l-21.261,42.52H530.079z"/>
	<path fill="none" stroke="#000000" stroke-linecap="round" stroke-linejoin="round" d="M530.079,426.209l-21.26-42.52
		l-21.261,42.52H530.079z"/>
	<g>
		<path stroke="#000000" d="M458.747,405.39l-9.638-3.497l0.077,7.199L458.747,405.39z"/>
	</g>
	<path marker-end="url(#FilledArrow_Marker)" stroke="#000000" d="M449.148,405.492"/>
	<path fill="#CFF4FD" d="M530.079,559.642l-21.26-42.52l-21.261,42.52H530.079z"/>
	<path fill="none" stroke="#000000" stroke-linecap="round" stroke-linejoin="round" d="M530.079,559.642l-21.26-42.52
		l-21.261,42.52H530.079z"/>
	<g>
		<path stroke="#000000" d="M458.747,538.787l-9.6-3.6v7.2L458.747,538.787z"/>
	</g>
	<path marker-end="url(#FilledArrow_Marker)" stroke="#000000" d="M449.147,538.787"/>
	<path fill="#CFF4FD" d="M530.079,490.394l-21.26-42.52l-21.261,42.52H530.079z"/>
	<path fill="none" stroke="#000000" stroke-linecap="round" stroke-linejoin="round" d="M530.079,490.394l-21.26-42.52
		l-21.261,42.52H530.079z"/>
	<g>
		<path stroke="#000000" d="M458.747,469.539l-9.6-3.6v7.2L458.747,469.539z"/>
	</g>
	<path marker-end="url(#FilledArrow_Marker)" stroke="#000000" d="M449.147,469.539"/>
	<path fill="#CFF4FD" d="M532.913,629.291l-21.26-42.52l-21.26,42.52H532.913z"/>
	<path fill="none" stroke="#000000" stroke-linecap="round" stroke-linejoin="round" d="M532.913,629.291l-21.26-42.52l-21.26,42.52
		H532.913z"/>
	<g>
		<path stroke="#000000" d="M461.582,608.438l-9.601-3.601v7.2L461.582,608.438z"/>
	</g>
	<path marker-end="url(#FilledArrow_Marker)" stroke="#000000" d="M451.981,608.438"/>
	<path fill="#CFF4FD" d="M541.417,357.166l-21.26-42.521l-21.26,42.521H541.417z"/>
	<path fill="none" stroke="#000000" stroke-linecap="round" stroke-linejoin="round" d="M541.417,357.166l-21.26-42.521
		l-21.26,42.521H541.417z"/>
	<path fill="#CFF4FD" d="M552.756,357.166l-21.26-42.521l-21.26,42.521H552.756z"/>
	<path fill="none" stroke="#000000" stroke-linecap="round" stroke-linejoin="round" d="M552.756,357.166l-21.26-42.521
		l-21.26,42.521H552.756z"/>
	<path fill="#CFF4FD" d="M564.095,357.166l-21.26-42.521l-21.26,42.521H564.095z"/>
	<path fill="none" stroke="#000000" stroke-linecap="round" stroke-linejoin="round" d="M564.095,357.166l-21.26-42.521
		l-21.26,42.521H564.095z"/>
	<path fill="#CFF4FD" d="M575.433,357.166l-21.26-42.521l-21.26,42.521H575.433z"/>
	<path fill="none" stroke="#000000" stroke-linecap="round" stroke-linejoin="round" d="M575.433,357.166l-21.26-42.521
		l-21.26,42.521H575.433z"/>
	<path fill="#CFF4FD" d="M586.771,357.166l-21.26-42.521l-21.26,42.521H586.771z"/>
	<path fill="none" stroke="#000000" stroke-linecap="round" stroke-linejoin="round" d="M586.771,357.166l-21.26-42.521
		l-21.26,42.521H586.771z"/>
	<path fill="#CFF4FD" d="M598.11,357.166l-21.26-42.521l-21.26,42.521H598.11z"/>
	<path fill="none" stroke="#000000" stroke-linecap="round" stroke-linejoin="round" d="M598.11,357.166l-21.26-42.521
		l-21.26,42.521H598.11z"/>
	<path fill="#CFF4FD" d="M609.449,357.166l-21.26-42.521l-21.261,42.521H609.449z"/>
	<path fill="none" stroke="#000000" stroke-linecap="round" stroke-linejoin="round" d="M609.449,357.166l-21.26-42.521
		l-21.261,42.521H609.449z"/>
	<path fill="#CFF4FD" d="M620.787,357.166l-21.26-42.521l-21.26,42.521H620.787z"/>
	<path fill="none" stroke="#000000" stroke-linecap="round" stroke-linejoin="round" d="M620.787,357.166l-21.26-42.521
		l-21.26,42.521H620.787z"/>
	<path fill="#CFF4FD" d="M632.126,357.166l-21.26-42.521l-21.26,42.521H632.126z"/>
	<path fill="none" stroke="#000000" stroke-linecap="round" stroke-linejoin="round" d="M632.126,357.166l-21.26-42.521
		l-21.26,42.521H632.126z"/>
	<path fill="#CFF4FD" d="M643.465,357.166l-21.26-42.521l-21.26,42.521H643.465z"/>
	<path fill="none" stroke="#000000" stroke-linecap="round" stroke-linejoin="round" d="M643.465,357.166l-21.26-42.521
		l-21.26,42.521H643.465z"/>
	<path fill="#CFF4FD" d="M654.803,357.166l-21.26-42.521l-21.26,42.521H654.803z"/>
	<path fill="none" stroke="#000000" stroke-linecap="round" stroke-linejoin="round" d="M654.803,357.166l-21.26-42.521
		l-21.26,42.521H654.803z"/>
	<path fill="#CFF4FD" d="M666.142,357.166l-21.26-42.521l-21.26,42.521H666.142z"/>
	<path fill="none" stroke="#000000" stroke-linecap="round" stroke-linejoin="round" d="M666.142,357.166l-21.26-42.521
		l-21.26,42.521H666.142z"/>
	<path fill="#CFF4FD" d="M677.48,357.166l-21.26-42.521l-21.26,42.521H677.48z"/>
	<path fill="none" stroke="#000000" stroke-linecap="round" stroke-linejoin="round" d="M677.48,357.166l-21.26-42.521
		l-21.26,42.521H677.48z"/>
	<path fill="#CFF4FD" d="M688.819,357.166l-21.261-42.521l-21.26,42.521H688.819z"/>
	<path fill="none" stroke="#000000" stroke-linecap="round" stroke-linejoin="round" d="M688.819,357.166l-21.261-42.521
		l-21.26,42.521H688.819z"/>
	<path fill="#CFF4FD" d="M530.079,426.209l-21.26-42.52l-21.261,42.52H530.079z"/>
	<path fill="none" stroke="#000000" stroke-linecap="round" stroke-linejoin="round" d="M530.079,426.209l-21.26-42.52
		l-21.261,42.52H530.079z"/>
	<path fill="#CFF4FD" d="M541.417,426.209l-21.26-42.52l-21.26,42.52H541.417z"/>
	<path fill="none" stroke="#000000" stroke-linecap="round" stroke-linejoin="round" d="M541.417,426.209l-21.26-42.52l-21.26,42.52
		H541.417z"/>
	<path fill="#CFF4FD" d="M552.756,426.209l-21.26-42.52l-21.26,42.52H552.756z"/>
	<path fill="none" stroke="#000000" stroke-linecap="round" stroke-linejoin="round" d="M552.756,426.209l-21.26-42.52l-21.26,42.52
		H552.756z"/>
	<path fill="#CFF4FD" d="M564.095,426.209l-21.26-42.52l-21.26,42.52H564.095z"/>
	<path fill="none" stroke="#000000" stroke-linecap="round" stroke-linejoin="round" d="M564.095,426.209l-21.26-42.52l-21.26,42.52
		H564.095z"/>
	<path fill="#CFF4FD" d="M575.433,426.209l-21.26-42.52l-21.26,42.52H575.433z"/>
	<path fill="none" stroke="#000000" stroke-linecap="round" stroke-linejoin="round" d="M575.433,426.209l-21.26-42.52l-21.26,42.52
		H575.433z"/>
	<path fill="#CFF4FD" d="M586.771,426.209l-21.26-42.52l-21.26,42.52H586.771z"/>
	<path fill="none" stroke="#000000" stroke-linecap="round" stroke-linejoin="round" d="M586.771,426.209l-21.26-42.52l-21.26,42.52
		H586.771z"/>
	<path fill="#CFF4FD" d="M598.11,426.209l-21.26-42.52l-21.26,42.52H598.11z"/>
	<path fill="none" stroke="#000000" stroke-linecap="round" stroke-linejoin="round" d="M598.11,426.209l-21.26-42.52l-21.26,42.52
		H598.11z"/>
	<path fill="#CFF4FD" d="M541.417,490.394l-21.26-42.52l-21.26,42.52H541.417z"/>
	<path fill="none" stroke="#000000" stroke-linecap="round" stroke-linejoin="round" d="M541.417,490.394l-21.26-42.52l-21.26,42.52
		H541.417z"/>
	<path fill="#CFF4FD" d="M552.756,490.394l-21.26-42.52l-21.26,42.52H552.756z"/>
	<path fill="none" stroke="#000000" stroke-linecap="round" stroke-linejoin="round" d="M552.756,490.394l-21.26-42.52l-21.26,42.52
		H552.756z"/>
	<path fill="#CFF4FD" d="M564.095,490.394l-21.26-42.52l-21.26,42.52H564.095z"/>
	<path fill="none" stroke="#000000" stroke-linecap="round" stroke-linejoin="round" d="M564.095,490.394l-21.26-42.52l-21.26,42.52
		H564.095z"/>
	<path fill="#CFF4FD" d="M575.433,490.394l-21.26-42.52l-21.26,42.52H575.433z"/>
	<path fill="none" stroke="#000000" stroke-linecap="round" stroke-linejoin="round" d="M575.433,490.394l-21.26-42.52l-21.26,42.52
		H575.433z"/>
	<path fill="#CFF4FD" d="M541.417,559.642l-21.26-42.52l-21.26,42.52H541.417z"/>
	<path fill="none" stroke="#000000" stroke-linecap="round" stroke-linejoin="round" d="M541.417,559.642l-21.26-42.52l-21.26,42.52
		H541.417z"/>
	<path fill="#CFF4FD" d="M552.756,559.642l-21.26-42.52l-21.26,42.52H552.756z"/>
	<path fill="none" stroke="#000000" stroke-linecap="round" stroke-linejoin="round" d="M552.756,559.642l-21.26-42.52l-21.26,42.52
		H552.756z"/>
	<path fill="#CFF4FD" d="M564.095,559.642l-21.26-42.52l-21.26,42.52H564.095z"/>
	<path fill="none" stroke="#000000" stroke-linecap="round" stroke-linejoin="round" d="M564.095,559.642l-21.26-42.52l-21.26,42.52
		H564.095z"/>
	<path fill="#CFF4FD" d="M575.433,559.642l-21.26-42.52l-21.26,42.52H575.433z"/>
	<path fill="none" stroke="#000000" stroke-linecap="round" stroke-linejoin="round" d="M575.433,559.642l-21.26-42.52l-21.26,42.52
		H575.433z"/>
	<path fill="#CFF4FD" d="M586.771,559.642l-21.26-42.52l-21.26,42.52H586.771z"/>
	<path fill="none" stroke="#000000" stroke-linecap="round" stroke-linejoin="round" d="M586.771,559.642l-21.26-42.52l-21.26,42.52
		H586.771z"/>
	<path fill="#CFF4FD" d="M598.11,559.642l-21.26-42.52l-21.26,42.52H598.11z"/>
	<path fill="none" stroke="#000000" stroke-linecap="round" stroke-linejoin="round" d="M598.11,559.642l-21.26-42.52l-21.26,42.52
		H598.11z"/>
	<path fill="#CFF4FD" d="M609.449,559.642l-21.26-42.52l-21.261,42.52H609.449z"/>
	<path fill="none" stroke="#000000" stroke-linecap="round" stroke-linejoin="round" d="M609.449,559.642l-21.26-42.52
		l-21.261,42.52H609.449z"/>
	<path fill="#CFF4FD" d="M620.787,559.642l-21.26-42.52l-21.26,42.52H620.787z"/>
	<path fill="none" stroke="#000000" stroke-linecap="round" stroke-linejoin="round" d="M620.787,559.642l-21.26-42.52l-21.26,42.52
		H620.787z"/>
	<path fill="#CFF4FD" d="M632.126,559.642l-21.26-42.52l-21.26,42.52H632.126z"/>
	<path fill="none" stroke="#000000" stroke-linecap="round" stroke-linejoin="round" d="M632.126,559.642l-21.26-42.52l-21.26,42.52
		H632.126z"/>
	<path fill="#CFF4FD" d="M643.465,559.642l-21.26-42.52l-21.26,42.52H643.465z"/>
	<path fill="none" stroke="#000000" stroke-linecap="round" stroke-linejoin="round" d="M643.465,559.642l-21.26-42.52l-21.26,42.52
		H643.465z"/>
	<path fill="#CFF4FD" d="M544.252,629.291l-21.26-42.52l-21.26,42.52H544.252z"/>
	<path fill="none" stroke="#000000" stroke-linecap="round" stroke-linejoin="round" d="M544.252,629.291l-21.26-42.52l-21.26,42.52
		H544.252z"/>
	<path fill="#CFF4FD" d="M555.591,629.291l-21.26-42.52l-21.26,42.52H555.591z"/>
	<path fill="none" stroke="#000000" stroke-linecap="round" stroke-linejoin="round" d="M555.591,629.291l-21.26-42.52l-21.26,42.52
		H555.591z"/>
	<path fill="#CFF4FD" d="M566.929,629.291l-21.26-42.52l-21.26,42.52H566.929z"/>
	<path fill="none" stroke="#000000" stroke-linecap="round" stroke-linejoin="round" d="M566.929,629.291l-21.26-42.52l-21.26,42.52
		H566.929z"/>
	<path fill="#CFF4FD" d="M578.268,629.291l-21.26-42.52l-21.26,42.52H578.268z"/>
	<path fill="none" stroke="#000000" stroke-linecap="round" stroke-linejoin="round" d="M578.268,629.291l-21.26-42.52l-21.26,42.52
		H578.268z"/>
	<path fill="#CFF4FD" d="M589.606,629.291l-21.26-42.52l-21.26,42.52H589.606z"/>
	<path fill="none" stroke="#000000" stroke-linecap="round" stroke-linejoin="round" d="M589.606,629.291l-21.26-42.52l-21.26,42.52
		H589.606z"/>
	<path fill="#CFF4FD" d="M600.945,629.291l-21.26-42.52l-21.261,42.52H600.945z"/>
	<path fill="none" stroke="#000000" stroke-linecap="round" stroke-linejoin="round" d="M600.945,629.291l-21.26-42.52
		l-21.261,42.52H600.945z"/>
	<g enable-background="new    ">
		<path d="M539.476,268.531c0.4-1.142,0.976-2.138,1.726-2.987c0.75-0.851,1.67-1.517,2.762-2s2.321-0.726,3.688-0.726
			c1.384,0,2.617,0.242,3.7,0.726s2,1.149,2.75,2c0.75,0.85,1.325,1.846,1.726,2.987c0.399,1.142,0.6,2.379,0.6,3.713
			c0,1.3-0.2,2.512-0.6,3.637c-0.4,1.125-0.976,2.104-1.726,2.938c-0.75,0.834-1.667,1.488-2.75,1.963s-2.316,0.713-3.7,0.713
			c-1.366,0-2.596-0.238-3.688-0.713s-2.012-1.129-2.762-1.963c-0.75-0.833-1.325-1.812-1.726-2.938
			c-0.399-1.125-0.6-2.337-0.6-3.637C538.876,270.91,539.076,269.673,539.476,268.531z M543.063,274.432
			c0.175,0.708,0.454,1.346,0.837,1.912c0.384,0.566,0.884,1.021,1.5,1.362c0.617,0.342,1.367,0.513,2.25,0.513
			c0.884,0,1.634-0.171,2.25-0.513c0.617-0.341,1.117-0.796,1.5-1.362c0.384-0.566,0.663-1.204,0.838-1.912
			c0.175-0.709,0.263-1.438,0.263-2.188c0-0.783-0.088-1.542-0.263-2.275s-0.454-1.388-0.838-1.963
			c-0.383-0.574-0.883-1.033-1.5-1.375c-0.616-0.341-1.366-0.512-2.25-0.512c-0.883,0-1.633,0.171-2.25,0.512
			c-0.616,0.342-1.116,0.801-1.5,1.375c-0.383,0.575-0.662,1.229-0.837,1.963s-0.263,1.492-0.263,2.275
			C542.801,272.994,542.889,273.723,543.063,274.432z"/>
		<path d="M567.477,281.094v-1.8H567.4c-0.449,0.75-1.033,1.292-1.75,1.625s-1.449,0.5-2.199,0.5c-0.95,0-1.729-0.125-2.338-0.375
			s-1.088-0.604-1.438-1.062s-0.596-1.017-0.737-1.675s-0.212-1.388-0.212-2.188v-7.95h3.549v7.3c0,1.066,0.167,1.862,0.5,2.388
			c0.334,0.524,0.926,0.787,1.775,0.787c0.967,0,1.666-0.287,2.1-0.862s0.65-1.521,0.65-2.838v-6.774h3.551v12.925H567.477z"/>
		<path d="M580.65,268.169v2.375h-2.6v6.399c0,0.601,0.1,1,0.3,1.2s0.601,0.3,1.2,0.3c0.199,0,0.391-0.008,0.574-0.024
			s0.359-0.042,0.525-0.075v2.75c-0.3,0.05-0.633,0.083-1,0.1s-0.725,0.025-1.074,0.025c-0.551,0-1.072-0.037-1.562-0.112
			c-0.492-0.075-0.926-0.221-1.301-0.438s-0.671-0.525-0.887-0.925c-0.217-0.4-0.326-0.926-0.326-1.575v-7.625h-2.149v-2.375h2.149
			v-3.875h3.551v3.875H580.65z"/>
		<path d="M585.725,268.169v1.649h0.051c0.433-0.699,0.982-1.208,1.649-1.524s1.4-0.476,2.2-0.476c1.017,0,1.892,0.192,2.625,0.575
			c0.733,0.384,1.342,0.892,1.825,1.525s0.841,1.371,1.075,2.212c0.232,0.842,0.35,1.722,0.35,2.638c0,0.867-0.117,1.7-0.35,2.5
			c-0.234,0.8-0.588,1.509-1.062,2.125c-0.476,0.617-1.067,1.108-1.775,1.476c-0.709,0.366-1.537,0.55-2.487,0.55
			c-0.8,0-1.538-0.163-2.213-0.487c-0.675-0.325-1.229-0.805-1.662-1.438h-0.05v6.125h-3.551v-17.45H585.725z M590.338,278.419
			c0.391-0.233,0.708-0.538,0.949-0.913c0.242-0.375,0.413-0.812,0.513-1.312c0.101-0.5,0.15-1.008,0.15-1.524
			s-0.055-1.025-0.163-1.525s-0.287-0.945-0.537-1.337s-0.571-0.709-0.963-0.95s-0.871-0.362-1.438-0.362
			c-0.583,0-1.07,0.121-1.462,0.362s-0.709,0.554-0.95,0.938c-0.242,0.384-0.412,0.825-0.513,1.325c-0.1,0.5-0.149,1.017-0.149,1.55
			c0,0.517,0.054,1.024,0.162,1.524s0.283,0.938,0.525,1.312c0.241,0.375,0.562,0.68,0.962,0.913c0.4,0.233,0.884,0.35,1.45,0.35
			C589.458,278.769,589.945,278.652,590.338,278.419z"/>
		<path d="M606.375,281.094v-1.8H606.3c-0.45,0.75-1.034,1.292-1.75,1.625c-0.717,0.333-1.45,0.5-2.2,0.5
			c-0.949,0-1.729-0.125-2.338-0.375c-0.607-0.25-1.087-0.604-1.438-1.062c-0.35-0.458-0.596-1.017-0.736-1.675
			c-0.143-0.658-0.213-1.388-0.213-2.188v-7.95h3.55v7.3c0,1.066,0.167,1.862,0.5,2.388c0.333,0.524,0.925,0.787,1.774,0.787
			c0.967,0,1.667-0.287,2.101-0.862c0.433-0.575,0.649-1.521,0.649-2.838v-6.774h3.551v12.925H606.375z"/>
		<path d="M619.55,268.169v2.375h-2.601v6.399c0,0.601,0.101,1,0.301,1.2c0.199,0.2,0.6,0.3,1.199,0.3
			c0.2,0,0.392-0.008,0.575-0.024s0.358-0.042,0.525-0.075v2.75c-0.3,0.05-0.634,0.083-1,0.1c-0.367,0.017-0.726,0.025-1.075,0.025
			c-0.55,0-1.071-0.037-1.562-0.112c-0.492-0.075-0.925-0.221-1.3-0.438s-0.671-0.525-0.888-0.925
			c-0.217-0.4-0.325-0.926-0.325-1.575v-7.625h-2.149v-2.375h2.149v-3.875h3.55v3.875H619.55z"/>
	</g>
</g>
</svg>
